<svg width="262" height="43" viewBox="0 0 262 43" fill="none" xmlns="http://www.w3.org/2000/svg">
<path d="M12.3397 8.5C19.0947 8.5 24.2397 13.82 24.2397 20.75C24.2397 27.68 19.0947 33 12.3397 33H2.53974V8.5H12.3397ZM12.3397 27.61C16.1897 27.61 18.8497 24.95 18.8497 20.75C18.8497 16.55 16.1897 13.89 12.3397 13.89H8.13974V27.61H12.3397ZM29.1384 13.96C27.4234 13.96 25.9884 12.525 25.9884 10.81C25.9884 9.095 27.4234 7.66 29.1384 7.66C30.8534 7.66 32.2884 9.095 32.2884 10.81C32.2884 12.525 30.8534 13.96 29.1384 13.96ZM26.5134 33V15.5H31.7634V33H26.5134ZM47.6102 15.5H52.8602V33H47.6102V31.355C46.4552 32.685 44.7402 33.49 42.3952 33.49C37.8102 33.49 34.0302 29.465 34.0302 24.25C34.0302 19.035 37.8102 15.01 42.3952 15.01C44.7402 15.01 46.4552 15.815 47.6102 17.145V15.5ZM43.4452 28.52C45.8602 28.52 47.6102 26.875 47.6102 24.25C47.6102 21.625 45.8602 19.98 43.4452 19.98C41.0302 19.98 39.2802 21.625 39.2802 24.25C39.2802 26.875 41.0302 28.52 43.4452 28.52ZM66.2668 15.01C69.8018 15.01 72.8118 17.53 72.8118 22.255V33H67.5618V23.025C67.5618 20.855 66.1968 19.84 64.5168 19.84C62.5918 19.84 61.2618 20.96 61.2618 23.445V33H56.0118V15.5H61.2618V17.145C62.2068 15.85 63.9568 15.01 66.2668 15.01ZM85.9721 15.01C89.5071 15.01 92.5171 17.53 92.5171 22.255V33H87.2671V23.025C87.2671 20.855 85.9021 19.84 84.2221 19.84C82.2971 19.84 80.9671 20.96 80.9671 23.445V33H75.7171V15.5H80.9671V17.145C81.9121 15.85 83.6621 15.01 85.9721 15.01ZM100.112 26.35C100.777 28.17 102.387 28.8 104.312 28.8C105.747 28.8 106.972 28.24 107.672 27.47L111.872 29.885C110.157 32.265 107.567 33.49 104.242 33.49C98.2574 33.49 94.5474 29.465 94.5474 24.25C94.5474 19.035 98.3274 15.01 103.857 15.01C108.967 15.01 112.747 18.965 112.747 24.25C112.747 24.985 112.677 25.685 112.537 26.35H100.112ZM100.007 22.43H107.532C106.972 20.4 105.397 19.665 103.822 19.665C101.827 19.665 100.497 20.645 100.007 22.43ZM131.685 33.455C129.398 33.455 127.438 32.9183 125.805 31.845C124.195 30.7717 123.063 29.3017 122.41 27.435L125.21 25.825C126.167 28.7883 128.348 30.27 131.755 30.27C133.435 30.27 134.718 29.9317 135.605 29.255C136.492 28.555 136.935 27.6333 136.935 26.49C136.935 25.3233 136.492 24.4483 135.605 23.865C134.718 23.2817 133.237 22.6633 131.16 22.01C130.133 21.6833 129.352 21.4267 128.815 21.24C128.278 21.03 127.602 20.7267 126.785 20.33C125.992 19.91 125.397 19.49 125 19.07C124.603 18.6267 124.242 18.055 123.915 17.355C123.612 16.655 123.46 15.8617 123.46 14.975C123.46 12.8517 124.207 11.1717 125.7 9.935C127.193 8.675 129.013 8.045 131.16 8.045C133.097 8.045 134.777 8.535 136.2 9.515C137.647 10.495 138.732 11.79 139.455 13.4L136.725 14.975C135.675 12.455 133.82 11.195 131.16 11.195C129.83 11.195 128.757 11.5217 127.94 12.175C127.123 12.8283 126.715 13.715 126.715 14.835C126.715 15.9083 127.1 16.725 127.87 17.285C128.64 17.845 129.97 18.4283 131.86 19.035C132.537 19.245 133.015 19.3967 133.295 19.49C133.575 19.5833 134.007 19.7467 134.59 19.98C135.197 20.2133 135.64 20.4 135.92 20.54C136.2 20.68 136.573 20.8783 137.04 21.135C137.53 21.3917 137.892 21.6367 138.125 21.87C138.358 22.1033 138.627 22.395 138.93 22.745C139.257 23.0717 139.49 23.41 139.63 23.76C139.77 24.11 139.887 24.5183 139.98 24.985C140.097 25.4283 140.155 25.9067 140.155 26.42C140.155 28.5667 139.373 30.2817 137.81 31.565C136.247 32.825 134.205 33.455 131.685 33.455ZM158.101 8.5V11.58H150.856V33H147.636V11.58H140.426V8.5H158.101ZM176.127 31.11C174.424 32.6733 172.219 33.455 169.512 33.455C166.805 33.455 164.589 32.6733 162.862 31.11C161.159 29.5233 160.307 27.4117 160.307 24.775V8.5H163.562V24.635C163.562 26.3617 164.075 27.7383 165.102 28.765C166.129 29.7683 167.599 30.27 169.512 30.27C171.425 30.27 172.895 29.7683 173.922 28.765C174.949 27.7383 175.462 26.3617 175.462 24.635V8.5H178.682V24.775C178.682 27.4117 177.83 29.5233 176.127 31.11ZM192.514 8.5C195.851 8.5 198.616 9.69 200.809 12.07C203.026 14.4267 204.134 17.32 204.134 20.75C204.134 24.18 203.026 27.085 200.809 29.465C198.616 31.8217 195.851 33 192.514 33H182.959V8.5H192.514ZM192.514 29.92C195.011 29.92 197.053 29.045 198.639 27.295C200.226 25.545 201.019 23.3633 201.019 20.75C201.019 18.1367 200.226 15.955 198.639 14.205C197.053 12.455 195.011 11.58 192.514 11.58H186.214V29.92H192.514ZM207.381 8.5H210.636V33H207.381V8.5ZM235.562 29.745C233.112 32.2183 230.114 33.455 226.567 33.455C223.02 33.455 220.022 32.2183 217.572 29.745C215.122 27.2717 213.897 24.2733 213.897 20.75C213.897 17.2033 215.122 14.205 217.572 11.755C220.022 9.28166 223.02 8.045 226.567 8.045C230.114 8.045 233.112 9.28166 235.562 11.755C238.035 14.205 239.272 17.2033 239.272 20.75C239.272 24.2733 238.035 27.2717 235.562 29.745ZM219.812 27.54C221.632 29.36 223.884 30.27 226.567 30.27C229.25 30.27 231.49 29.36 233.287 27.54C235.107 25.6967 236.017 23.4333 236.017 20.75C236.017 18.0433 235.107 15.78 233.287 13.96C231.49 12.1167 229.25 11.195 226.567 11.195C223.884 11.195 221.632 12.1167 219.812 13.96C218.015 15.78 217.117 18.0433 217.117 20.75C217.117 23.4333 218.015 25.6967 219.812 27.54Z" fill="black"/>
<path d="M251.508 5.225C256.508 5.225 260.558 9.25 260.558 14.25C260.558 19.25 256.508 23.275 251.508 23.275C246.508 23.275 242.458 19.25 242.458 14.25C242.458 9.25 246.508 5.225 251.508 5.225ZM251.508 22.675C256.133 22.675 259.883 18.925 259.883 14.25C259.883 9.575 256.133 5.825 251.508 5.825C246.883 5.825 243.108 9.575 243.108 14.25C243.108 18.925 246.883 22.675 251.508 22.675ZM255.008 12.525C255.008 13.8 254.408 14.775 253.133 15.175L255.233 18.875H253.908L251.958 15.4H251.608H250.033V18.875H248.833V9.625H251.608C253.933 9.625 255.008 11.05 255.008 12.525ZM250.033 14.25H251.658C253.133 14.25 253.808 13.575 253.808 12.525C253.808 11.5 253.083 10.775 251.658 10.775H250.033V14.25Z" fill="black"/>
</svg>
