<svg width="188" height="53" viewBox="0 0 188 53" fill="none" xmlns="http://www.w3.org/2000/svg">
<rect x="0.5" y="0.412109" width="187" height="52" rx="26" fill="white"/>
<path d="M70.148 31.4121L69.122 28.5861H63.452L62.426 31.4121H60.644L65.342 18.8121H67.232L71.93 31.4121H70.148ZM64.028 27.0201H68.546L66.278 20.8101L64.028 27.0201ZM73.2544 31.4121V18.2721H74.8204V31.4121H73.2544ZM77.2095 31.4121V18.2721H78.7755V31.4121H77.2095ZM88.5446 31.4121L84.9266 18.8121H86.6906L89.5706 29.1801L92.6306 18.8121H94.3226L97.3826 29.1801L100.263 18.8121H102.027L98.4086 31.4121H96.4646L93.4766 21.3501L90.4886 31.4121H88.5446ZM110.188 30.2781C109.264 31.1901 108.142 31.6461 106.822 31.6461C105.502 31.6461 104.38 31.1901 103.456 30.2781C102.544 29.3661 102.088 28.2441 102.088 26.9121C102.088 25.5801 102.544 24.4581 103.456 23.5461C104.38 22.6341 105.502 22.1781 106.822 22.1781C108.142 22.1781 109.264 22.6341 110.188 23.5461C111.112 24.4581 111.574 25.5801 111.574 26.9121C111.574 28.2441 111.112 29.3661 110.188 30.2781ZM106.822 30.1161C107.722 30.1161 108.478 29.8101 109.09 29.1981C109.702 28.5861 110.008 27.8241 110.008 26.9121C110.008 26.0001 109.702 25.2381 109.09 24.6261C108.478 24.0141 107.722 23.7081 106.822 23.7081C105.934 23.7081 105.184 24.0141 104.572 24.6261C103.96 25.2381 103.654 26.0001 103.654 26.9121C103.654 27.8241 103.96 28.5861 104.572 29.1981C105.184 29.8101 105.934 30.1161 106.822 30.1161ZM114.986 23.9241C115.502 22.8081 116.438 22.2501 117.794 22.2501V23.8881C117.026 23.8521 116.366 24.0561 115.814 24.5001C115.262 24.9441 114.986 25.6581 114.986 26.6421V31.4121H113.42V22.4121H114.986V23.9241ZM126.941 31.4121H124.997L120.893 27.1461V31.4121H119.327V18.8121H120.893V26.3901L124.781 22.4121H126.797L122.495 26.7681L126.941 31.4121Z" fill="#252525"/>
</svg>
