<svg width="104" height="53" viewBox="0 0 104 53" fill="none" xmlns="http://www.w3.org/2000/svg">
<rect y="0.411865" width="104" height="52" rx="26" fill="white"/>
<path d="M32.648 31.4119V30.0439L37.094 25.5079C38.282 24.3199 38.876 23.2999 38.876 22.4479C38.876 21.7399 38.66 21.1879 38.228 20.7919C37.796 20.3959 37.268 20.1979 36.644 20.1979C35.456 20.1979 34.592 20.7619 34.052 21.8899L32.648 21.0619C33.044 20.2459 33.59 19.6279 34.286 19.2079C34.994 18.7879 35.774 18.5779 36.626 18.5779C37.682 18.5779 38.6 18.9259 39.38 19.6219C40.16 20.3179 40.55 21.2539 40.55 22.4299C40.55 23.7019 39.8 25.0879 38.3 26.5879L35.078 29.7919H40.784V31.4119H32.648ZM50.5684 29.8639C49.7164 31.0519 48.5224 31.6459 46.9864 31.6459C45.4504 31.6459 44.2564 31.0519 43.4044 29.8639C42.5524 28.6759 42.1264 27.0919 42.1264 25.1119C42.1264 23.1319 42.5524 21.5479 43.4044 20.3599C44.2564 19.1719 45.4504 18.5779 46.9864 18.5779C48.5224 18.5779 49.7164 19.1719 50.5684 20.3599C51.4204 21.5479 51.8464 23.1319 51.8464 25.1119C51.8464 27.0919 51.4204 28.6759 50.5684 29.8639ZM44.6284 28.7299C45.1804 29.5819 45.9664 30.0079 46.9864 30.0079C48.0064 30.0079 48.7924 29.5819 49.3444 28.7299C49.9084 27.8779 50.1904 26.6719 50.1904 25.1119C50.1904 23.5519 49.9084 22.3459 49.3444 21.4939C48.7924 20.6299 48.0064 20.1979 46.9864 20.1979C45.9664 20.1979 45.1804 20.6239 44.6284 21.4759C44.0764 22.3279 43.8004 23.5399 43.8004 25.1119C43.8004 26.6719 44.0764 27.8779 44.6284 28.7299ZM53.0738 31.4119V30.0439L57.5198 25.5079C58.7078 24.3199 59.3018 23.2999 59.3018 22.4479C59.3018 21.7399 59.0858 21.1879 58.6538 20.7919C58.2218 20.3959 57.6938 20.1979 57.0698 20.1979C55.8818 20.1979 55.0178 20.7619 54.4778 21.8899L53.0738 21.0619C53.4698 20.2459 54.0158 19.6279 54.7118 19.2079C55.4198 18.7879 56.1998 18.5779 57.0518 18.5779C58.1078 18.5779 59.0258 18.9259 59.8058 19.6219C60.5858 20.3179 60.9758 21.2539 60.9758 22.4299C60.9758 23.7019 60.2258 25.0879 58.7258 26.5879L55.5038 29.7919H61.2098V31.4119H53.0738ZM62.566 31.4119V30.0439L67.012 25.5079C68.2 24.3199 68.794 23.2999 68.794 22.4479C68.794 21.7399 68.578 21.1879 68.146 20.7919C67.714 20.3959 67.186 20.1979 66.562 20.1979C65.374 20.1979 64.51 20.7619 63.97 21.8899L62.566 21.0619C62.962 20.2459 63.508 19.6279 64.204 19.2079C64.912 18.7879 65.692 18.5779 66.544 18.5779C67.6 18.5779 68.518 18.9259 69.298 19.6219C70.078 20.3179 70.468 21.2539 70.468 22.4299C70.468 23.7019 69.718 25.0879 68.218 26.5879L64.996 29.7919H70.702V31.4119H62.566Z" fill="#252525"/>
</svg>
