<svg width="104" height="53" viewBox="0 0 104 53" fill="none" xmlns="http://www.w3.org/2000/svg">
<rect y="0.412109" width="104" height="52" rx="26" fill="white"/>
<path d="M32.648 31.4121V30.0441L37.094 25.5081C38.282 24.3201 38.876 23.3001 38.876 22.4481C38.876 21.7401 38.66 21.1881 38.228 20.7921C37.796 20.3961 37.268 20.1981 36.644 20.1981C35.456 20.1981 34.592 20.7621 34.052 21.8901L32.648 21.0621C33.044 20.2461 33.59 19.6281 34.286 19.2081C34.994 18.7881 35.774 18.5781 36.626 18.5781C37.682 18.5781 38.6 18.9261 39.38 19.6221C40.16 20.3181 40.55 21.2541 40.55 22.4301C40.55 23.7021 39.8 25.0881 38.3 26.5881L35.078 29.7921H40.784V31.4121H32.648ZM50.5684 29.8641C49.7164 31.0521 48.5224 31.6461 46.9864 31.6461C45.4504 31.6461 44.2564 31.0521 43.4044 29.8641C42.5524 28.6761 42.1264 27.0921 42.1264 25.1121C42.1264 23.1321 42.5524 21.5481 43.4044 20.3601C44.2564 19.1721 45.4504 18.5781 46.9864 18.5781C48.5224 18.5781 49.7164 19.1721 50.5684 20.3601C51.4204 21.5481 51.8464 23.1321 51.8464 25.1121C51.8464 27.0921 51.4204 28.6761 50.5684 29.8641ZM44.6284 28.7301C45.1804 29.5821 45.9664 30.0081 46.9864 30.0081C48.0064 30.0081 48.7924 29.5821 49.3444 28.7301C49.9084 27.8781 50.1904 26.6721 50.1904 25.1121C50.1904 23.5521 49.9084 22.3461 49.3444 21.4941C48.7924 20.6301 48.0064 20.1981 46.9864 20.1981C45.9664 20.1981 45.1804 20.6241 44.6284 21.4761C44.0764 22.3281 43.8004 23.5401 43.8004 25.1121C43.8004 26.6721 44.0764 27.8781 44.6284 28.7301ZM53.0738 31.4121V30.0441L57.5198 25.5081C58.7078 24.3201 59.3018 23.3001 59.3018 22.4481C59.3018 21.7401 59.0858 21.1881 58.6538 20.7921C58.2218 20.3961 57.6938 20.1981 57.0698 20.1981C55.8818 20.1981 55.0178 20.7621 54.4778 21.8901L53.0738 21.0621C53.4698 20.2461 54.0158 19.6281 54.7118 19.2081C55.4198 18.7881 56.1998 18.5781 57.0518 18.5781C58.1078 18.5781 59.0258 18.9261 59.8058 19.6221C60.5858 20.3181 60.9758 21.2541 60.9758 22.4301C60.9758 23.7021 60.2258 25.0881 58.7258 26.5881L55.5038 29.7921H61.2098V31.4121H53.0738ZM67.4302 23.9781C68.3902 24.1581 69.1762 24.5721 69.7882 25.2201C70.4002 25.8681 70.7062 26.6901 70.7062 27.6861C70.7062 28.9101 70.2862 29.8761 69.4462 30.5841C68.6062 31.2921 67.5862 31.6461 66.3862 31.6461C65.4262 31.6461 64.5742 31.4301 63.8302 30.9981C63.0862 30.5541 62.5582 29.9181 62.2462 29.0901L63.6502 28.2621C64.0222 29.4261 64.9342 30.0081 66.3862 30.0081C67.1662 30.0081 67.8022 29.8041 68.2942 29.3961C68.7862 28.9881 69.0322 28.4181 69.0322 27.6861C69.0322 26.9541 68.7862 26.3841 68.2942 25.9761C67.8022 25.5561 67.1662 25.3461 66.3862 25.3461H65.9542L65.2882 24.3201L68.2042 20.3781H62.6062V18.8121H70.1662V20.2881L67.4302 23.9781Z" fill="#252525"/>
</svg>
