<svg width="163" height="54" viewBox="0 0 163 54" fill="none" xmlns="http://www.w3.org/2000/svg">
<rect x="0.588135" y="0.0786133" width="162.412" height="53.3333" rx="26.6667" fill="#252525"/>
<path d="M36.8521 19.1451C38.5681 19.1451 39.9901 19.7571 41.1181 20.9811C42.2581 22.1931 42.8281 23.6811 42.8281 25.4451C42.8281 27.2091 42.2581 28.7031 41.1181 29.9271C39.9901 31.1391 38.5681 31.7451 36.8521 31.7451H31.9381V19.1451H36.8521ZM36.8521 30.1611C38.1361 30.1611 39.1861 29.7111 40.0021 28.8111C40.8181 27.9111 41.2261 26.7891 41.2261 25.4451C41.2261 24.1011 40.8181 22.9791 40.0021 22.0791C39.1861 21.1791 38.1361 20.7291 36.8521 20.7291H33.6121V30.1611H36.8521ZM45.4881 21.1071C45.1881 21.1071 44.9361 21.0051 44.7321 20.8011C44.5281 20.5971 44.4261 20.3511 44.4261 20.0631C44.4261 19.7751 44.5281 19.5291 44.7321 19.3251C44.9361 19.1091 45.1881 19.0011 45.4881 19.0011C45.7761 19.0011 46.0221 19.1091 46.2261 19.3251C46.4301 19.5291 46.5321 19.7751 46.5321 20.0631C46.5321 20.3511 46.4301 20.5971 46.2261 20.8011C46.0221 21.0051 45.7761 21.1071 45.4881 21.1071ZM44.6961 31.7451V22.7451H46.2621V31.7451H44.6961ZM49.9836 25.1751C49.9836 25.5231 50.1576 25.8051 50.5056 26.0211C50.8536 26.2251 51.2736 26.3931 51.7656 26.5251C52.2576 26.6451 52.7496 26.7891 53.2416 26.9571C53.7336 27.1131 54.1536 27.3891 54.5016 27.7851C54.8496 28.1691 55.0236 28.6671 55.0236 29.2791C55.0236 30.0951 54.7056 30.7491 54.0696 31.2411C53.4456 31.7331 52.6416 31.9791 51.6576 31.9791C50.7816 31.9791 50.0316 31.7871 49.4076 31.4031C48.7836 31.0191 48.3396 30.5091 48.0756 29.8731L49.4256 29.0991C49.5696 29.5311 49.8396 29.8731 50.2356 30.1251C50.6316 30.3771 51.1056 30.5031 51.6576 30.5031C52.1736 30.5031 52.5996 30.4071 52.9356 30.2151C53.2716 30.0111 53.4396 29.6991 53.4396 29.2791C53.4396 28.9311 53.2656 28.6551 52.9176 28.4511C52.5696 28.2351 52.1496 28.0671 51.6576 27.9471C51.1656 27.8151 50.6736 27.6651 50.1816 27.4971C49.6896 27.3291 49.2696 27.0531 48.9216 26.6691C48.5736 26.2851 48.3996 25.7931 48.3996 25.1931C48.3996 24.4131 48.6996 23.7711 49.2996 23.2671C49.9116 22.7631 50.6736 22.5111 51.5856 22.5111C52.3176 22.5111 52.9656 22.6791 53.5296 23.0151C54.1056 23.3391 54.5376 23.7951 54.8256 24.3831L53.5116 25.1211C53.1876 24.3531 52.5456 23.9691 51.5856 23.9691C51.1416 23.9691 50.7636 24.0771 50.4516 24.2931C50.1396 24.4971 49.9836 24.7911 49.9836 25.1751ZM60.8616 31.9791C59.5056 31.9791 58.3776 31.5291 57.4776 30.6291C56.5776 29.7171 56.1276 28.5891 56.1276 27.2451C56.1276 25.9011 56.5776 24.7791 57.4776 23.8791C58.3776 22.9671 59.5056 22.5111 60.8616 22.5111C61.7496 22.5111 62.5476 22.7271 63.2556 23.1591C63.9636 23.5791 64.4916 24.1491 64.8396 24.8691L63.5256 25.6251C63.2976 25.1451 62.9436 24.7611 62.4636 24.4731C61.9956 24.1851 61.4616 24.0411 60.8616 24.0411C59.9616 24.0411 59.2056 24.3471 58.5936 24.9591C57.9936 25.5711 57.6936 26.3331 57.6936 27.2451C57.6936 28.1451 57.9936 28.9011 58.5936 29.5131C59.2056 30.1251 59.9616 30.4311 60.8616 30.4311C61.4616 30.4311 62.0016 30.2931 62.4816 30.0171C62.9616 29.7291 63.3276 29.3451 63.5796 28.8651L64.9116 29.6391C64.5276 30.3471 63.9756 30.9171 63.2556 31.3491C62.5356 31.7691 61.7376 31.9791 60.8616 31.9791ZM73.9307 30.6111C73.0067 31.5231 71.8847 31.9791 70.5647 31.9791C69.2447 31.9791 68.1227 31.5231 67.1987 30.6111C66.2867 29.6991 65.8307 28.5771 65.8307 27.2451C65.8307 25.9131 66.2867 24.7911 67.1987 23.8791C68.1227 22.9671 69.2447 22.5111 70.5647 22.5111C71.8847 22.5111 73.0067 22.9671 73.9307 23.8791C74.8547 24.7911 75.3167 25.9131 75.3167 27.2451C75.3167 28.5771 74.8547 29.6991 73.9307 30.6111ZM70.5647 30.4491C71.4647 30.4491 72.2207 30.1431 72.8327 29.5311C73.4447 28.9191 73.7507 28.1571 73.7507 27.2451C73.7507 26.3331 73.4447 25.5711 72.8327 24.9591C72.2207 24.3471 71.4647 24.0411 70.5647 24.0411C69.6767 24.0411 68.9267 24.3471 68.3147 24.9591C67.7027 25.5711 67.3967 26.3331 67.3967 27.2451C67.3967 28.1571 67.7027 28.9191 68.3147 29.5311C68.9267 30.1431 69.6767 30.4491 70.5647 30.4491ZM83.1113 22.7451H84.8033L81.2033 31.7451H79.3673L75.7673 22.7451H77.4593L80.2853 30.0711L83.1113 22.7451ZM86.8741 27.9651C87.0301 28.7691 87.3961 29.3931 87.9721 29.8371C88.5601 30.2811 89.2801 30.5031 90.1321 30.5031C91.3201 30.5031 92.1841 30.0651 92.7241 29.1891L94.0561 29.9451C93.1801 31.3011 91.8601 31.9791 90.0961 31.9791C88.6681 31.9791 87.5041 31.5351 86.6041 30.6471C85.7161 29.7471 85.2721 28.6131 85.2721 27.2451C85.2721 25.8891 85.7101 24.7611 86.5861 23.8611C87.4621 22.9611 88.5961 22.5111 89.9881 22.5111C91.3081 22.5111 92.3821 22.9791 93.2101 23.9151C94.0501 24.8391 94.4701 25.9551 94.4701 27.2631C94.4701 27.4911 94.4521 27.7251 94.4161 27.9651H86.8741ZM89.9881 23.9871C89.1481 23.9871 88.4521 24.2271 87.9001 24.7071C87.3481 25.1751 87.0061 25.8051 86.8741 26.5971H92.8861C92.7541 25.7451 92.4181 25.0971 91.8781 24.6531C91.3381 24.2091 90.7081 23.9871 89.9881 23.9871ZM97.8363 24.2571C98.3523 23.1411 99.2883 22.5831 100.644 22.5831V24.2211C99.8763 24.1851 99.2163 24.3891 98.6643 24.8331C98.1123 25.2771 97.8363 25.9911 97.8363 26.9751V31.7451H96.2703V22.7451H97.8363V24.2571Z" fill="white"/>
<path d="M131.588 26.7456L111.588 26.7456" stroke="white" stroke-width="2" stroke-linecap="square" stroke-linejoin="round"/>
<path d="M126.333 33.4121L133 26.7454L126.333 20.0788" stroke="white" stroke-width="2" stroke-linecap="square" stroke-linejoin="round"/>
</svg>
