<svg width="164" height="54" viewBox="0 0 164 54" fill="none" xmlns="http://www.w3.org/2000/svg">
<rect width="163.412" height="53.3333" rx="26.6667" fill="#252525"/>
<path d="M38.604 20.651H33.024V24.737H38.37V26.321H33.024V31.667H31.35V19.067H38.604V20.651ZM41.2613 21.029C40.9613 21.029 40.7093 20.927 40.5053 20.723C40.3013 20.519 40.1993 20.273 40.1993 19.985C40.1993 19.697 40.3013 19.451 40.5053 19.247C40.7093 19.031 40.9613 18.923 41.2613 18.923C41.5493 18.923 41.7953 19.031 41.9993 19.247C42.2033 19.451 42.3053 19.697 42.3053 19.985C42.3053 20.273 42.2033 20.519 41.9993 20.723C41.7953 20.927 41.5493 21.029 41.2613 21.029ZM40.4692 31.667V22.667H42.0353V31.667H40.4692ZM48.9063 22.433C49.9623 22.433 50.8083 22.769 51.4443 23.441C52.0803 24.101 52.3983 25.001 52.3983 26.141V31.667H50.8323V26.231C50.8323 25.499 50.6343 24.935 50.2383 24.539C49.8423 24.131 49.2963 23.927 48.6003 23.927C47.8203 23.927 47.1903 24.173 46.7103 24.665C46.2303 25.145 45.9903 25.889 45.9903 26.897V31.667H44.4243V22.667H45.9903V23.963C46.6263 22.943 47.5983 22.433 48.9063 22.433ZM62.0365 19.067H63.6025V31.667H62.0365V30.119C61.2565 31.307 60.1225 31.901 58.6345 31.901C57.3745 31.901 56.3005 31.445 55.4125 30.533C54.5245 29.609 54.0805 28.487 54.0805 27.167C54.0805 25.847 54.5245 24.731 55.4125 23.819C56.3005 22.895 57.3745 22.433 58.6345 22.433C60.1225 22.433 61.2565 23.027 62.0365 24.215V19.067ZM58.8325 30.389C59.7445 30.389 60.5065 30.083 61.1185 29.471C61.7305 28.847 62.0365 28.079 62.0365 27.167C62.0365 26.255 61.7305 25.493 61.1185 24.881C60.5065 24.257 59.7445 23.945 58.8325 23.945C57.9325 23.945 57.1765 24.257 56.5645 24.881C55.9525 25.493 55.6465 26.255 55.6465 27.167C55.6465 28.079 55.9525 28.847 56.5645 29.471C57.1765 30.083 57.9325 30.389 58.8325 30.389ZM73.9131 31.901C73.0011 31.901 72.1971 31.709 71.5011 31.325C70.8051 30.941 70.2951 30.383 69.9711 29.651L71.3931 28.823C71.7651 29.783 72.6051 30.263 73.9131 30.263C74.7171 30.263 75.3471 30.071 75.8031 29.687C76.2591 29.303 76.4871 28.733 76.4871 27.977V19.067H78.1431V27.977C78.1431 29.237 77.7411 30.209 76.9371 30.893C76.1451 31.565 75.1371 31.901 73.9131 31.901ZM88.0203 30.533C87.0963 31.445 85.9743 31.901 84.6543 31.901C83.3343 31.901 82.2123 31.445 81.2883 30.533C80.3763 29.621 79.9203 28.499 79.9203 27.167C79.9203 25.835 80.3763 24.713 81.2883 23.801C82.2123 22.889 83.3343 22.433 84.6543 22.433C85.9743 22.433 87.0963 22.889 88.0203 23.801C88.9443 24.713 89.4063 25.835 89.4063 27.167C89.4063 28.499 88.9443 29.621 88.0203 30.533ZM84.6543 30.371C85.5543 30.371 86.3103 30.065 86.9223 29.453C87.5343 28.841 87.8403 28.079 87.8403 27.167C87.8403 26.255 87.5343 25.493 86.9223 24.881C86.3103 24.269 85.5543 23.963 84.6543 23.963C83.7663 23.963 83.0163 24.269 82.4043 24.881C81.7923 25.493 81.4863 26.255 81.4863 27.167C81.4863 28.079 81.7923 28.841 82.4043 29.453C83.0163 30.065 83.7663 30.371 84.6543 30.371ZM96.2205 22.433C97.4805 22.433 98.5545 22.895 99.4425 23.819C100.33 24.731 100.774 25.847 100.774 27.167C100.774 28.487 100.33 29.609 99.4425 30.533C98.5545 31.445 97.4805 31.901 96.2205 31.901C94.7325 31.901 93.5985 31.307 92.8185 30.119V31.667H91.2525V19.067H92.8185V24.215C93.5985 23.027 94.7325 22.433 96.2205 22.433ZM96.0225 30.389C96.9225 30.389 97.6785 30.083 98.2905 29.471C98.9025 28.847 99.2085 28.079 99.2085 27.167C99.2085 26.255 98.9025 25.493 98.2905 24.881C97.6785 24.257 96.9225 23.945 96.0225 23.945C95.1105 23.945 94.3485 24.257 93.7365 24.881C93.1245 25.493 92.8185 26.255 92.8185 27.167C92.8185 28.079 93.1245 28.847 93.7365 29.471C94.3485 30.083 95.1105 30.389 96.0225 30.389Z" fill="white"/>
<path d="M132 26.666L112 26.666" stroke="white" stroke-width="2" stroke-linecap="square" stroke-linejoin="round"/>
<path d="M126.745 33.333L133.412 26.6663L126.745 19.9997" stroke="white" stroke-width="2" stroke-linecap="square" stroke-linejoin="round"/>
</svg>
