<svg width="176" height="53" viewBox="0 0 176 53" fill="none" xmlns="http://www.w3.org/2000/svg">
<rect y="0.411865" width="176" height="52" rx="26" fill="white"/>
<path d="M36.264 18.8119C37.98 18.8119 39.402 19.4239 40.53 20.6479C41.67 21.8599 42.24 23.3479 42.24 25.1119C42.24 26.8759 41.67 28.3699 40.53 29.5939C39.402 30.8059 37.98 31.4119 36.264 31.4119H31.35V18.8119H36.264ZM36.264 29.8279C37.548 29.8279 38.598 29.3779 39.414 28.4779C40.23 27.5779 40.638 26.4559 40.638 25.1119C40.638 23.7679 40.23 22.6459 39.414 21.7459C38.598 20.8459 37.548 20.3959 36.264 20.3959H33.024V29.8279H36.264ZM44.8999 20.7739C44.5999 20.7739 44.3479 20.6719 44.1439 20.4679C43.9399 20.2639 43.8379 20.0179 43.8379 19.7299C43.8379 19.4419 43.9399 19.1959 44.1439 18.9919C44.3479 18.7759 44.5999 18.6679 44.8999 18.6679C45.1879 18.6679 45.4339 18.7759 45.6379 18.9919C45.8419 19.1959 45.9439 19.4419 45.9439 19.7299C45.9439 20.0179 45.8419 20.2639 45.6379 20.4679C45.4339 20.6719 45.1879 20.7739 44.8999 20.7739ZM44.1079 31.4119V22.4119H45.6739V31.4119H44.1079ZM55.533 22.4119H57.081V31.0339C57.081 32.3659 56.631 33.3979 55.731 34.1299C54.831 34.8739 53.751 35.2459 52.491 35.2459C51.483 35.2459 50.613 35.0539 49.881 34.6699C49.149 34.2979 48.597 33.7579 48.225 33.0499L49.593 32.2759C50.085 33.2839 51.063 33.7879 52.527 33.7879C53.463 33.7879 54.195 33.5419 54.723 33.0499C55.263 32.5579 55.533 31.8859 55.533 31.0339V29.7559C54.741 30.9559 53.613 31.5559 52.149 31.5559C50.865 31.5559 49.779 31.0999 48.891 30.1879C48.003 29.2759 47.559 28.1659 47.559 26.8579C47.559 25.5499 48.003 24.4459 48.891 23.5459C49.779 22.6339 50.865 22.1779 52.149 22.1779C53.625 22.1779 54.753 22.7719 55.533 23.9599V22.4119ZM50.043 29.1439C50.655 29.7559 51.417 30.0619 52.329 30.0619C53.241 30.0619 54.003 29.7559 54.615 29.1439C55.227 28.5319 55.533 27.7699 55.533 26.8579C55.533 25.9579 55.227 25.2019 54.615 24.5899C54.003 23.9779 53.241 23.6719 52.329 23.6719C51.417 23.6719 50.655 23.9779 50.043 24.5899C49.431 25.2019 49.125 25.9579 49.125 26.8579C49.125 27.7699 49.431 28.5319 50.043 29.1439ZM60.2456 20.7739C59.9456 20.7739 59.6936 20.6719 59.4896 20.4679C59.2856 20.2639 59.1836 20.0179 59.1836 19.7299C59.1836 19.4419 59.2856 19.1959 59.4896 18.9919C59.6936 18.7759 59.9456 18.6679 60.2456 18.6679C60.5336 18.6679 60.7796 18.7759 60.9836 18.9919C61.1876 19.1959 61.2896 19.4419 61.2896 19.7299C61.2896 20.0179 61.1876 20.2639 60.9836 20.4679C60.7796 20.6719 60.5336 20.7739 60.2456 20.7739ZM59.4536 31.4119V22.4119H61.0196V31.4119H59.4536ZM68.3047 23.9239H65.9107V28.8019C65.9107 29.2459 65.9947 29.5639 66.1627 29.7559C66.3427 29.9359 66.6127 30.0319 66.9727 30.0439C67.3327 30.0439 67.7767 30.0319 68.3047 30.0079V31.4119C66.9367 31.5919 65.9347 31.4839 65.2987 31.0879C64.6627 30.6799 64.3447 29.9179 64.3447 28.8019V23.9239H62.5627V22.4119H64.3447V20.3599L65.9107 19.8919V22.4119H68.3047V23.9239ZM77.1537 22.4119H78.7197V31.4119H77.1537V29.8639C76.3737 31.0519 75.2397 31.6459 73.7517 31.6459C72.4917 31.6459 71.4177 31.1899 70.5297 30.2779C69.6417 29.3539 69.1977 28.2319 69.1977 26.9119C69.1977 25.5919 69.6417 24.4759 70.5297 23.5639C71.4177 22.6399 72.4917 22.1779 73.7517 22.1779C75.2397 22.1779 76.3737 22.7719 77.1537 23.9599V22.4119ZM73.9497 30.1339C74.8617 30.1339 75.6237 29.8279 76.2357 29.2159C76.8477 28.5919 77.1537 27.8239 77.1537 26.9119C77.1537 25.9999 76.8477 25.2379 76.2357 24.6259C75.6237 24.0019 74.8617 23.6899 73.9497 23.6899C73.0497 23.6899 72.2937 24.0019 71.6817 24.6259C71.0697 25.2379 70.7637 25.9999 70.7637 26.9119C70.7637 27.8239 71.0697 28.5919 71.6817 29.2159C72.2937 29.8279 73.0497 30.1339 73.9497 30.1339ZM81.0923 31.4119V18.2719H82.6583V31.4119H81.0923ZM94.6234 18.8119C96.3394 18.8119 97.7614 19.4239 98.8894 20.6479C100.029 21.8599 100.599 23.3479 100.599 25.1119C100.599 26.8759 100.029 28.3699 98.8894 29.5939C97.7614 30.8059 96.3394 31.4119 94.6234 31.4119H89.7094V18.8119H94.6234ZM94.6234 29.8279C95.9074 29.8279 96.9574 29.3779 97.7734 28.4779C98.5894 27.5779 98.9974 26.4559 98.9974 25.1119C98.9974 23.7679 98.5894 22.6459 97.7734 21.7459C96.9574 20.8459 95.9074 20.3959 94.6234 20.3959H91.3834V29.8279H94.6234ZM103.565 27.6319C103.721 28.4359 104.087 29.0599 104.663 29.5039C105.251 29.9479 105.971 30.1699 106.823 30.1699C108.011 30.1699 108.875 29.7319 109.415 28.8559L110.747 29.6119C109.871 30.9679 108.551 31.6459 106.787 31.6459C105.359 31.6459 104.195 31.2019 103.295 30.3139C102.407 29.4139 101.963 28.2799 101.963 26.9119C101.963 25.5559 102.401 24.4279 103.277 23.5279C104.153 22.6279 105.287 22.1779 106.679 22.1779C107.999 22.1779 109.073 22.6459 109.901 23.5819C110.741 24.5059 111.161 25.6219 111.161 26.9299C111.161 27.1579 111.143 27.3919 111.107 27.6319H103.565ZM106.679 23.6539C105.839 23.6539 105.143 23.8939 104.591 24.3739C104.039 24.8419 103.697 25.4719 103.565 26.2639H109.577C109.445 25.4119 109.109 24.7639 108.569 24.3199C108.029 23.8759 107.399 23.6539 106.679 23.6539ZM113.96 24.8419C113.96 25.1899 114.134 25.4719 114.482 25.6879C114.83 25.8919 115.25 26.0599 115.742 26.1919C116.234 26.3119 116.726 26.4559 117.218 26.6239C117.71 26.7799 118.13 27.0559 118.478 27.4519C118.826 27.8359 119 28.3339 119 28.9459C119 29.7619 118.682 30.4159 118.046 30.9079C117.422 31.3999 116.618 31.6459 115.634 31.6459C114.758 31.6459 114.008 31.4539 113.384 31.0699C112.76 30.6859 112.316 30.1759 112.052 29.5399L113.402 28.7659C113.546 29.1979 113.816 29.5399 114.212 29.7919C114.608 30.0439 115.082 30.1699 115.634 30.1699C116.15 30.1699 116.576 30.0739 116.912 29.8819C117.248 29.6779 117.416 29.3659 117.416 28.9459C117.416 28.5979 117.242 28.3219 116.894 28.1179C116.546 27.9019 116.126 27.7339 115.634 27.6139C115.142 27.4819 114.65 27.3319 114.158 27.1639C113.666 26.9959 113.246 26.7199 112.898 26.3359C112.55 25.9519 112.376 25.4599 112.376 24.8599C112.376 24.0799 112.676 23.4379 113.276 22.9339C113.888 22.4299 114.65 22.1779 115.562 22.1779C116.294 22.1779 116.942 22.3459 117.506 22.6819C118.082 23.0059 118.514 23.4619 118.802 24.0499L117.488 24.7879C117.164 24.0199 116.522 23.6359 115.562 23.6359C115.118 23.6359 114.74 23.7439 114.428 23.9599C114.116 24.1639 113.96 24.4579 113.96 24.8419ZM121.558 20.7739C121.258 20.7739 121.006 20.6719 120.802 20.4679C120.598 20.2639 120.496 20.0179 120.496 19.7299C120.496 19.4419 120.598 19.1959 120.802 18.9919C121.006 18.7759 121.258 18.6679 121.558 18.6679C121.846 18.6679 122.092 18.7759 122.296 18.9919C122.5 19.1959 122.602 19.4419 122.602 19.7299C122.602 20.0179 122.5 20.2639 122.296 20.4679C122.092 20.6719 121.846 20.7739 121.558 20.7739ZM120.766 31.4119V22.4119H122.332V31.4119H120.766ZM132.191 22.4119H133.739V31.0339C133.739 32.3659 133.289 33.3979 132.389 34.1299C131.489 34.8739 130.409 35.2459 129.149 35.2459C128.141 35.2459 127.271 35.0539 126.539 34.6699C125.807 34.2979 125.255 33.7579 124.883 33.0499L126.251 32.2759C126.743 33.2839 127.721 33.7879 129.185 33.7879C130.121 33.7879 130.853 33.5419 131.381 33.0499C131.921 32.5579 132.191 31.8859 132.191 31.0339V29.7559C131.399 30.9559 130.271 31.5559 128.807 31.5559C127.523 31.5559 126.437 31.0999 125.549 30.1879C124.661 29.2759 124.217 28.1659 124.217 26.8579C124.217 25.5499 124.661 24.4459 125.549 23.5459C126.437 22.6339 127.523 22.1779 128.807 22.1779C130.283 22.1779 131.411 22.7719 132.191 23.9599V22.4119ZM126.701 29.1439C127.313 29.7559 128.075 30.0619 128.987 30.0619C129.899 30.0619 130.661 29.7559 131.273 29.1439C131.885 28.5319 132.191 27.7699 132.191 26.8579C132.191 25.9579 131.885 25.2019 131.273 24.5899C130.661 23.9779 129.899 23.6719 128.987 23.6719C128.075 23.6719 127.313 23.9779 126.701 24.5899C126.089 25.2019 125.783 25.9579 125.783 26.8579C125.783 27.7699 126.089 28.5319 126.701 29.1439ZM140.594 22.1779C141.65 22.1779 142.496 22.5139 143.132 23.1859C143.768 23.8459 144.086 24.7459 144.086 25.8859V31.4119H142.52V25.9759C142.52 25.2439 142.322 24.6799 141.926 24.2839C141.53 23.8759 140.984 23.6719 140.288 23.6719C139.508 23.6719 138.878 23.9179 138.398 24.4099C137.918 24.8899 137.678 25.6339 137.678 26.6419V31.4119H136.112V22.4119H137.678V23.7079C138.314 22.6879 139.286 22.1779 140.594 22.1779Z" fill="#252525"/>
</svg>
